<svg width="17" height="12" viewBox="0 0 17 12" fill="none" xmlns="http://www.w3.org/2000/svg">
    <path d="M1.92008 0.200023H15.85C16.0267 0.207895 16.1981 0.26247 16.3468 0.358196C16.4955 0.453922 16.6161 0.587355 16.6964 0.744915C16.7767 0.902475 16.8139 1.07851 16.804 1.25508C16.7941 1.43164 16.7375 1.60243 16.64 1.75001L9.64005 11.39C9.54672 11.5123 9.42637 11.6114 9.28848 11.6797C9.1506 11.7479 8.99885 11.7834 8.845 11.7834C8.69116 11.7834 8.53941 11.7479 8.40152 11.6797C8.26363 11.6114 8.1434 11.5123 8.05008 11.39L1.05008 1.75001C0.948999 1.59677 0.891982 1.41867 0.885407 1.23521C0.878833 1.05175 0.922873 0.870025 1.01273 0.709942C1.10258 0.549858 1.23477 0.417592 1.39481 0.327648C1.55484 0.237704 1.73661 0.193553 1.92008 0.200023V0.200023Z" fill="#999999"/>
</svg>
