<svg width="23" height="23" viewBox="0 0 23 23" fill="none" xmlns="http://www.w3.org/2000/svg">
<path d="M11.5 0.00195312C9.49501 0.00248551 7.52502 0.527127 5.78537 1.52385C4.04573 2.52057 2.59685 3.95474 1.58244 5.68413C0.568027 7.41352 0.0233208 9.37805 0.00233895 11.3829C-0.0186429 13.3877 0.484829 15.3632 1.46282 17.1135L0.473704 20.5755C0.396378 20.8461 0.392828 21.1324 0.463421 21.4049C0.534015 21.6773 0.676183 21.926 0.875193 22.125C1.0742 22.324 1.32281 22.4662 1.59526 22.5368C1.86771 22.6074 2.15408 22.6038 2.4247 22.5265L5.88673 21.5374C7.42035 22.395 9.13011 22.8897 10.8847 22.9836C12.6393 23.0775 14.3921 22.768 16.0085 22.079C17.6249 21.3899 19.0618 20.3396 20.2091 19.0087C21.3563 17.6778 22.1832 16.1016 22.6264 14.4013C23.0696 12.701 23.1172 10.9218 22.7657 9.20017C22.4141 7.47859 21.6726 5.86047 20.5983 4.47007C19.5239 3.07967 18.1452 1.95398 16.568 1.17943C14.9908 0.404878 13.2571 0.00207698 11.5 0.00195312V0.00195312ZM11.5 21.6457C9.67789 21.647 7.88921 21.1568 6.32234 20.2268C6.2431 20.1797 6.15508 20.1493 6.06366 20.1374C5.97225 20.1256 5.87938 20.1325 5.79074 20.1578L2.05305 21.2257C2.0144 21.2368 1.97349 21.2373 1.93457 21.2273C1.89564 21.2172 1.86012 21.1969 1.83169 21.1685C1.80326 21.14 1.78295 21.1045 1.77287 21.0656C1.76279 21.0267 1.76331 20.9858 1.77437 20.9471L2.8422 17.2095C2.86752 17.1209 2.87446 17.028 2.8626 16.9366C2.85073 16.8452 2.8203 16.7572 2.77318 16.678C1.63045 14.7527 1.15654 12.5036 1.42528 10.281C1.69402 8.0583 2.69032 5.98693 4.25898 4.38952C5.82764 2.79212 7.88057 1.75836 10.098 1.4493C12.3154 1.14024 14.5727 1.57323 16.5184 2.68081C18.4641 3.78839 19.9888 5.50837 20.8551 7.57282C21.7214 9.63728 21.8806 11.9303 21.3078 14.0946C20.7351 16.259 19.4627 18.1731 17.6887 19.5389C15.9147 20.9047 13.7388 21.6454 11.5 21.6457ZM17.3058 13.3948L14.9995 12.0767C14.756 11.9379 14.48 11.8663 14.1997 11.8693C13.9194 11.8723 13.645 11.9497 13.4045 12.0938L11.9566 12.9626C11.1435 12.5237 10.4765 11.8567 10.0376 11.0436L10.9064 9.5956C11.0504 9.35515 11.1279 9.08071 11.1309 8.80043C11.1339 8.52015 11.0622 8.24412 10.9233 8.00068L9.60538 5.69426C9.47802 5.47202 9.2943 5.2873 9.07275 5.15873C8.8512 5.03017 8.59967 4.9623 8.34352 4.96198C7.32949 4.96231 6.35689 5.36434 5.63858 6.08007C4.92027 6.79581 4.51475 7.76696 4.51077 8.78098C4.50895 10.0552 4.75836 11.3174 5.24474 12.4952C5.73111 13.6729 6.44492 14.7433 7.34531 15.645C8.24571 16.5467 9.31504 17.262 10.4921 17.7501C11.6692 18.2381 12.931 18.4893 14.2053 18.4893H14.2191C15.2332 18.4854 16.2043 18.0798 16.92 17.3615C17.6358 16.6432 18.0378 15.6706 18.0381 14.6566C18.0378 14.4004 17.97 14.1489 17.8414 13.9273C17.7128 13.7058 17.5281 13.5221 17.3058 13.3948V13.3948ZM14.2173 17.1366H14.2053C13.1089 17.1366 12.0231 16.9204 11.0103 16.5005C9.99745 16.0805 9.07733 15.465 8.30257 14.6892C7.5278 13.9133 6.9136 12.9923 6.49508 11.9789C6.07656 10.9654 5.86195 9.87941 5.86351 8.78295C5.86645 8.1272 6.12905 7.49932 6.59384 7.03673C7.05864 6.57415 7.68776 6.31453 8.34352 6.31472C8.36125 6.31473 8.37866 6.31941 8.394 6.3283C8.40933 6.3372 8.42205 6.34998 8.43087 6.36535L9.74882 8.67187C9.76866 8.70664 9.77889 8.74606 9.77847 8.78609C9.77804 8.82611 9.76697 8.86531 9.7464 8.89964L8.68798 10.6637C8.63185 10.7572 8.59918 10.8629 8.59276 10.9718C8.58633 11.0807 8.60635 11.1896 8.6511 11.2891C9.26218 12.6492 10.3509 13.7379 11.7111 14.349C11.8106 14.3938 11.9194 14.4138 12.0283 14.4074C12.1372 14.401 12.243 14.3683 12.3365 14.3121L14.1004 13.2538C14.1348 13.2332 14.174 13.2222 14.214 13.2217C14.2541 13.2213 14.2935 13.2315 14.3283 13.2512L16.6348 14.5693C16.6502 14.5781 16.6629 14.5908 16.6718 14.6061C16.6807 14.6215 16.6854 14.6389 16.6854 14.6566C16.6856 15.3123 16.426 15.9414 15.9634 16.4062C15.5009 16.871 14.873 17.1336 14.2173 17.1366V17.1366Z" fill="black"/>
</svg>
